# AST/ASF file generated using VICON BodyLanguage
# -----------------------------------------------
:version 1.10
:name VICON
:units
  mass 1.0
  length 0.45
  angle deg
:documentation
   .ast/.asf automatically generated from VICON data using
   VICON BodyBuilder and BodyLanguage model FoxedUp or BRILLIANT.MOD
:root
   order TX TY TZ RX RY RZ
   axis XYZ
   position 0 0 0  
   orientation 0 0 0 
:bonedata
  begin
     id 1 
     name lhipjoint
     direction 0.635376 -0.686425 0.353719 
     length 2.47244 
     axis 0 0 0  XYZ
  end
  begin
     id 2 
     name lfemur
     direction 0.34202 -0.939693 0  
     length 7.25268  
     axis 0 0 20  XYZ
    dof rx ry rz
    limits (-160.0 20.0)
           (-70.0 70.0)
           (-60.0 70.0)
  end
  begin
     id 3 
     name ltibia
     direction 0.34202 -0.939693 0   
     length 7.6767   
     axis 0 0 20   XYZ
    dof rx
    limits (-10.0 170.0)
  end
  begin
     id 4 
     name lfoot
     direction 0.0803374 -0.220725 0.972022   
     length 2.22945   
     axis -90 7.62852e-016 20   XYZ
    dof rx rz
    limits (-45.0 90.0)
           (-70.0 20.0)
  end
  begin
     id 5 
     name ltoes
     direction 1.53579e-011 -4.21994e-011 1   
     length 1.11848   
     axis -90 7.62852e-016 20   XYZ
    dof rx
    limits (-90.0 20.0)
  end
  begin
     id 6 
     name rhipjoint
     direction -0.664428 -0.664335 0.342336   
     length 2.55466  
     axis 0 0 0  XYZ 
  end
  begin
     id 7 
     name rfemur
     direction -0.34202 -0.939693 0   
     length 6.83172   
     axis 0 0 -20   XYZ
    dof rx ry rz
    limits (-160.0 20.0)
           (-70.0 70.0)
           (-70.0 60.0)
  end
  begin
     id 8 
     name rtibia
     direction -0.34202 -0.939693 0   
     length 7.62692   
     axis 0 0 -20   XYZ
    dof rx
    limits (-10.0 170.0)
 end
 begin
     id 9 
     name rfoot
     direction -0.0949276 -0.260811 0.960711   
     length 2.19684  
     axis -90 -7.62852e-016 -20   XYZ
    dof rx rz
    limits (-45.0 90.0)
           (-20.0 70.0)
  end
  begin
     id 10 
     name rtoes
     direction -1.53543e-011 -4.2183e-011 1   
     length 1.09848   
     axis -90 -7.62852e-016 -20   XYZ
    dof rx
    limits (-90.0 20.0)
  end
  begin
     id 11 
     name lowerback
     direction 0.0118782 0.999815 -0.0151555   
     length 2.15772   
     axis 0 0 0   XYZ
    dof rx ry rz
    limits (-20.0 45.0)
           (-30.0 30.0)
           (-30.0 30.0)
  end
  begin
     id 12 
     name upperback
     direction 0.00130825 0.999065 0.0432113   
     length 2.14863   
     axis 0 0 0   XYZ
    dof rx ry rz
    limits (-20.0 45.0)
           (-30.0 30.0)
           (-30.0 30.0)
  end
  begin
     id 13 
     name thorax
     direction -0.00347005 0.998773 0.0494011   
     length 2.14936   
     axis 0 0 0   XYZ
    dof rx ry rz
    limits (-20.0 45.0)
           (-30.0 30.0)
           (-30.0 30.0)
  end
  begin
     id 14 
     name lowerneck
     direction -0.0262159 0.99424 0.103921   
     length 1.69373   
     axis 0 0 0   XYZ
    dof rx ry rz
    limits (-20.0 45.0)
           (-30.0 30.0)
           (-30.0 30.0)
  end
  begin
     id 15 
     name upperneck
     direction 0.0353511 0.977394 -0.20845   
     length 1.70857   
     axis 0 0 0   XYZ
    dof rx ry rz
    limits (-20.0 45.0)
           (-30.0 30.0)
           (-30.0 30.0)
  end
  begin
     id 16
     name head
     direction 0.0139214 0.996594 -0.0812836  
     length 1.72777  
     axis 0 0 0   XYZ
    dof rx ry rz
    limits (-20.0 45.0)
           (-30.0 30.0)
           (-30.0 30.0)
  end
  begin
     id 17 
     name lclavicle
     direction 0.841247 0.537205 -0.0609508  
     length 3.55371  
     axis 0 0 0   XYZ
    dof ry rz
    limits (-20.0 10.0)
           (0.0 20.0)
  end
  begin
     id 18 
     name lhumerus
     direction 1 -4.48964e-011 1.60116e-018   
     length 4.91377   
     axis -180 -30 -90   XYZ
    dof rx ry rz
    limits (-60.0 90.0)
           (-90.0 90.0)
           (-90.0 90.0)
  end
  begin
     id 19
     name lradius
     direction 1 -4.48989e-011 -8.93847e-027   
     length 3.00291   
     axis -180 -30 -90   XYZ
    dof rx
    limits (-10.0 170.0)
  end
  begin
     id 20
     name lwrist
     direction 1 -4.48932e-011 -7.31504e-027   
     length 1.50145   
     axis 5.74121e-015 90 90   XYZ
    dof ry
    limits (-180.0 0.0)
 end
  begin
     id 21 
     name lhand
     direction 1 -4.48971e-011 -1.46301e-026   
     length 0.450922   
     axis 9.33524e-015 90 90   XYZ
    dof rx rz
    limits (-90.0 90.0)
           (-45.0 45.0)
  end
  begin
     id 22 
     name lfingers
     direction 1 -4.49039e-011 -2.92602e-026   
     length 0.363545   
     axis 1.86705e-014 90 90   XYZ
    dof rx
    limits (0.0 90.0)
  end
  begin
     id 23
     name lthumb
     direction 0.707107 -6.34941e-011 0.707107   
     length 0.52198   
     axis -90 45 2.85299e-015   XYZ
    dof rx rz
    limits (-45.0 45.0)
           (-45.0 45.0)
  end
  begin
     id 24 
     name rclavicle
     direction -0.825079 0.56158 -0.0622297   
     length 3.39909  
     axis 0 0 0   XYZ 
    dof ry rz
    limits (-10.0 20.0)
           (-20.0 0.0)
  end
  begin
     id 25 
     name rhumerus
     direction -1 -4.48965e-011 1.61691e-027  
     length 4.86725   
     axis -180 30 90   XYZ
    dof rx ry rz
    limits (-90.0 60.0)
           (-90.0 90.0)
           (-90.0 90.0)
  end
  begin
     id 26 
     name rradius
     direction -1 -4.48964e-011 -2.25776e-027   
     length 3.17144   
     axis -180 30 90   XYZ
    dof rx
    limits (-10.0 170.0)
  end
  begin
     id 27 
     name rwrist
     direction -1 -4.48961e-011 -7.31504e-027   
     length 1.58572   
     axis 5.74121e-015 -90 -90   XYZ
    dof ry
    limits (-180.0 0.0)
  end
  begin
     id 28
     name rhand
     direction -1 -4.49013e-011 -1.46301e-026   
     length 0.419368   
     axis 9.33524e-015 -90 -90   XYZ
    dof rx rz
    limits (-90.0 90.0)
           (-45.0 45.0)
  end
  begin
     id 29
     name rfingers
     direction -1 -4.489e-011 -2.92602e-026   
     length 0.338105   
     axis 1.86705e-014 -90 -90   XYZ
    dof rx
    limits (0.0 90.0)
  end
  begin
     id 30
     name rthumb
     direction -0.707107 -6.35022e-011 0.707107   
     length 0.485453   
     axis -90 -45 -2.85299e-015   XYZ
    dof rx rz
    limits (-45.0 45.0)
           (-45.0 45.0)
  end
:hierarchy
  begin
    root lhipjoint rhipjoint lowerback
    lhipjoint lfemur
    lfemur ltibia
    ltibia lfoot
    lfoot ltoes
    rhipjoint rfemur
    rfemur rtibia
    rtibia rfoot
    rfoot rtoes
    lowerback upperback
    upperback thorax
    thorax lowerneck lclavicle rclavicle
    lowerneck upperneck
    upperneck head
    lclavicle lhumerus
    lhumerus lradius
    lradius lwrist
    lwrist lhand lthumb
    lhand lfingers
    rclavicle rhumerus
    rhumerus rradius
    rradius rwrist
    rwrist rhand rthumb
    rhand rfingers
  end

#!OML:ASF H:\Swim 2\Project 1\Capture day 1\Session 1\male.ASF
:FULLY-SPECIFIED
:DEGREES
877
root 1.77254 13.7773 11.2565 99.8982 -1.88628 0.326691
lowerback -25.5837 -0.414772 -8.906
upperback -9.76508 1.36107 8.14029
thorax 2.89157 1.13067 14.0412
lowerneck -22.8677 -3.7277 -11.091
upperneck 42.7236 0.138863 -1.34345
head 21.2566 -1.88581 1.34492
rclavicle -3.81667e-014 -8.82604e-014
rhumerus 72.0672 7.45236 -10.5373
rradius 57.0968
rwrist -70.9941
rhand -28.9055 -21.3012
rfingers 7.12502
rthumb -2.26048 -51.269
lclavicle -3.81667e-014 -8.82604e-014
lhumerus 70.3632 -11.8439 53.3396
lradius 51.4015
lwrist 51.825
lhand -32.1856 9.09542
lfingers 7.12502
lthumb -5.42789 39.0059
rfemur -37.8094 5.40172 4.63251
rtibia 26.8041
rfoot 28.0218 -10.2587
rtoes 9.79368
lfemur -32.2676 -10.2208 -12.308
ltibia 35.1914
lfoot 4.11042 29.8993
ltoes 31.6239
878
root 1.7559 13.7683 11.2533 99.8939 -1.81922 0.242367
lowerback -25.5543 -0.457232 -8.78967
upperback -9.69264 1.268 8.09577
thorax 2.98523 1.06619 13.8983
lowerneck -22.8117 -3.55225 -10.9512
upperneck 42.9734 0.421703 -1.4965
head 21.399 -1.79088 1.3075
rclavicle -3.18055e-014 -2.94201e-014
rhumerus 72.746 7.61546 -10.3004
rradius 55.5237
rwrist -70.4592
rhand -28.3878 -21.2293
rfingers 7.12502
rthumb -1.76049 -51.2018
lclavicle -3.18055e-014 -2.94201e-014
lhumerus 70.9873 -11.8132 52.8216
lradius 49.455
lwrist 50.7921
lhand -31.9166 8.35637
lfingers 7.12502
lthumb -5.16818 38.2733
rfemur -38.4542 5.40822 5.53863
rtibia 27.3084
rfoot 28.199 -9.41778
rtoes 9.88553
lfemur -32.6925 -9.87787 -12.7547
ltibia 35.6238
lfoot 5.46878 29.2815
ltoes 30.3443
879
root 1.73888 13.7601 11.2507 99.892 -1.76401 0.160952
lowerback -25.5305 -0.504609 -8.67516
upperback -9.6278 1.16941 8.0495
thorax 3.07414 0.99988 13.7528
lowerneck -22.7793 -3.33841 -10.7553
upperneck 43.1751 0.811941 -1.80142
head 21.5136 -1.6665 1.20561
rclavicle -4.77083e-014 -4.53229e-014
rhumerus 73.4263 7.87938 -10.0984
rradius 53.9555
rwrist -69.818
rhand -27.8575 -20.8023
rfingers 7.12502
rthumb -1.24829 -50.7783
lclavicle -4.77083e-014 -4.53229e-014
lhumerus 71.5821 -11.78 52.3205
lradius 47.5587
lwrist 49.7129
lhand -31.6415 7.72127
lfingers 7.12502
lthumb -4.90255 37.6445
rfemur -39.0935 5.44012 6.39609
rtibia 27.7926
rfoot 28.3813 -8.60764
rtoes 10.0858
lfemur -33.125 -9.50309 -13.2081
ltibia 36.0271
lfoot 6.73241 28.7189
ltoes 29.011
880
root 1.72181 13.7528 11.2481 99.8858 -1.72635 0.0769736
lowerback -25.5049 -0.553499 -8.57413
upperback -9.57007 1.07254 8.00154
thorax 3.15319 0.936113 13.6135
lowerneck -22.7567 -3.10903 -10.5411
upperneck 43.306 1.25881 -2.1953
head 21.5842 -1.52772 1.06677
rclavicle 2.8625e-014 2.54444e-014
rhumerus 74.1071 8.21586 -9.89333
rradius 52.4052
rwrist -69.1561
rhand -27.4005 -19.9845
rfingers 7.12502
rthumb -0.806872 -49.9627
lclavicle 2.8625e-014 2.54444e-014
lhumerus 72.1559 -11.7499 51.8514
lradius 45.7073
lwrist 48.5995
lhand -31.3796 7.16132
lfingers 7.12502
lthumb -4.64972 37.0903
rfemur -39.7138 5.48485 7.20489
rtibia 28.2399
rfoot 28.5588 -7.83884
rtoes 10.298
lfemur -33.562 -9.12136 -13.6696
ltibia 36.4034
lfoot 7.86342 28.1933
ltoes 27.6257
881
root 1.70497 13.7462 11.2449 99.8717 -1.69892 -0.00572533
lowerback -25.4996 -0.603914 -8.47989
upperback -9.46876 0.95227 7.57755
thorax 3.18194 0.848152 13.8533
lowerneck -22.7285 -2.8931 -10.3499
upperneck 43.3569 1.69707 -2.60268
head 21.602 -1.39424 0.92299
rclavicle 4.29375e-014 -3.18055e-015
rhumerus 74.7813 8.61477 -9.68955
rradius 50.8896
rwrist -68.521
rhand -27.097 -18.7395
rfingers 7.12502
rthumb -0.513806 -48.7187
lclavicle 4.29375e-014 -3.18055e-015
lhumerus 72.7138 -11.7287 51.4263
lradius 43.8982
lwrist 47.4573
lhand -31.1185 6.67513
lfingers 7.12502
lthumb -4.3976 36.6095
rfemur -40.2968 5.52781 7.97752
rtibia 28.6292
rfoot 28.7456 -7.11341
rtoes 10.5775
lfemur -34.0096 -8.75653 -14.1241
ltibia 36.7623
lfoot 8.78811 27.7139
ltoes 26.2255
882
root 1.68882 13.7403 11.2409 99.8367 -1.67723 -0.0824994
lowerback -25.4505 -0.647445 -8.39737
upperback -9.42422 0.867118 7.53341
thorax 3.2396 0.793011 13.7218
lowerneck -22.6755 -2.75015 -10.28
upperneck 43.3395 1.99163 -2.8427
head 21.5679 -1.30742 0.855066
rclavicle -1.59028e-015 5.56597e-015
rhumerus 75.4374 9.02891 -9.48481
rradius 49.4336
rwrist -67.9457
rhand -26.9517 -17.2633
rfingers 7.12502
rthumb -0.373402 -47.2427
lclavicle -1.59028e-015 5.56597e-015
lhumerus 73.2692 -11.7176 51.0676
lradius 42.1294
lwrist 46.3003
lhand -30.8496 6.26593
lfingers 7.12502
lthumb -4.13793 36.2055
rfemur -40.8199 5.56687 8.71811
rtibia 28.9521
rfoot 28.844 -6.45108
rtoes 10.5424
lfemur -34.4615 -8.40264 -14.5736
ltibia 37.1059
lfoot 9.62518 27.2242
ltoes 24.7383
883
root 1.67368 13.735 11.2351 99.7807 -1.65319 -0.145905
lowerback -25.3914 -0.684727 -8.32827
upperback -9.37949 0.793722 7.49106
thorax 3.288 0.7453 13.6038
lowerneck -22.6078 -2.69914 -10.34
upperneck 43.293 2.1019 -2.87489
head 21.51 -1.27966 0.875718
rclavicle 5.40694e-014 3.49861e-014
rhumerus 76.0626 9.39162 -9.28183
rradius 48.0594
rwrist -67.4076
rhand -26.9274 -15.8557
rfingers 7.12502
rthumb -0.349953 -45.8352
lclavicle 5.40694e-014 3.49861e-014
lhumerus 73.8332 -11.7238 50.8071
lradius 40.4022
lwrist 45.1292
lhand -30.5837 5.9167
lfingers 7.12502
lthumb -3.88117 35.8611
rfemur -41.2761 5.59767 9.4339
rtibia 29.21
rfoot 28.9055 -5.84114
rtoes 10.4631
lfemur -34.918 -8.07576 -15.0042
ltibia 37.4312
lfoot 10.3158 26.7448
ltoes 23.3265
884
root 1.65941 13.7299 11.2289 99.7117 -1.63388 -0.19182
lowerback -25.3408 -0.717623 -8.29512
upperback -9.33632 0.736741 7.44858
thorax 3.33201 0.707807 13.5135
lowerneck -22.5286 -2.74719 -10.5154
upperneck 43.2711 2.01123 -2.69189
head 21.468 -1.31583 0.981329
rclavicle -1.11319e-014 2.38542e-014
rhumerus 76.6411 9.64363 -9.12335
rradius 46.7362
rwrist -66.7065
rhand -26.7635 -14.9418
rfingers 7.12502
rthumb -0.191678 -44.9214
lclavicle -1.11319e-014 2.38542e-014
lhumerus 74.4137 -11.763 50.6733
lradius 38.7193
lwrist 43.9444
lhand -30.351 5.59638
lfingers 7.12502
lthumb -3.65644 35.5448
rfemur -41.6891 5.62954 10.1027
rtibia 29.4217
rfoot 28.9117 -5.31568
rtoes 10.2894
lfemur -35.3792 -7.79108 -15.4161
ltibia 37.7256
lfoot 10.8951 26.2641
ltoes 22.0261
885
root 1.64615 13.7251 11.2228 99.627 -1.6185 -0.223676
lowerback -25.2979 -0.744565 -8.2924
upperback -9.29228 0.696596 7.40717
thorax 3.37435 0.680209 13.449
lowerneck -22.4423 -2.86826 -10.7681
upperneck 43.2809 1.76691 -2.34378
head 21.4504 -1.39971 1.15018
rclavicle -3.81667e-014 -7.91163e-014
rhumerus 77.1671 9.79055 -9.01495
rradius 45.4803
rwrist -65.8957
rhand -26.4904 -14.479
rfingers 7.12502
rthumb 0.0721339 -44.4587
lclavicle -3.81667e-014 -7.91163e-014
lhumerus 75.0014 -11.8269 50.6866
lradius 37.0829
lwrist 42.7519
lhand -30.1582 5.26804
lfingers 7.12502
lthumb -3.47021 35.2195
rfemur -42.0709 5.69025 10.7081
rtibia 29.6099
rfoot 28.8376 -4.92867
rtoes 10.0962
lfemur -35.8336 -7.56546 -15.8012
ltibia 37.9806
lfoot 11.4317 25.7523
ltoes 20.7463
886
root 1.63354 13.7203 11.2161 99.5343 -1.61772 -0.25225
lowerback -25.275 -0.765838 -8.32979
upperback -9.24422 0.676037 7.36479
thorax 3.42355 0.663323 13.4153
lowerneck -22.3766 -2.99241 -10.9827
upperneck 43.3192 1.51395 -2.01442
head 21.4637 -1.48425 1.30035
rclavicle -6.36111e-015 -1.43125e-014
rhumerus 77.6463 9.80764 -8.91155
rradius 44.3009
rwrist -65.0268
rhand -26.0933 -14.4713
rfingers 7.12502
rthumb 0.455625 -44.4505
lclavicle -6.36111e-015 -1.43125e-014
lhumerus 75.5967 -11.9044 50.873
lradius 35.4786
lwrist 41.5167
lhand -30.0262 4.86018
lfingers 7.12502
lthumb -3.3428 34.8137
rfemur -42.4446 5.77528 11.2436
rtibia 29.7983
rfoot 28.7151 -4.60915
rtoes 9.84453
lfemur -36.2817 -7.41969 -16.1564
ltibia 38.1927
lfoot 11.8761 25.2436
ltoes 19.69
887
root 1.62151 13.7153 11.2081 99.4378 -1.62616 -0.287417
lowerback -25.2695 -0.779286 -8.37916
upperback -9.19054 0.670317 7.3231
thorax 3.48278 0.653568 13.3953
lowerneck -22.3343 -3.07788 -11.111
upperneck 43.356 1.33621 -1.79616
head 21.4834 -1.54214 1.39519
rclavicle 1.59028e-014 -2.62396e-014
rhumerus 78.0881 9.81347 -8.92089
rradius 43.1559
rwrist -64.0659
rhand -25.6682 -14.4491
rfingers 7.12502
rthumb 0.866188 -44.4271
lclavicle 1.59028e-014 -2.62396e-014
lhumerus 76.1813 -11.9758 51.2544
lradius 33.888
lwrist 40.1891
lhand -29.9509 4.31219
lfingers 7.12502
lthumb -3.26999 34.2669
rfemur -42.8219 5.89317 11.7144
rtibia 29.9956
rfoot 28.5581 -4.31136
rtoes 9.5375
lfemur -36.7303 -7.35788 -16.469
ltibia 38.3729
lfoot 12.2457 24.751
ltoes 18.7924
888
root 1.6101 13.7104 11.1985 99.3291 -1.62081 -0.334316
lowerback -25.2658 -0.778056 -8.41055
upperback -9.12993 0.67967 7.29023
thorax 3.54679 0.650739 13.3794
lowerneck -22.3102 -3.12052 -11.1562
upperneck 43.3974 1.23888 -1.68443
head 21.5098 -1.57154 1.43872
rclavicle 5.725e-014 3.26007e-014
rhumerus 78.5119 9.80762 -8.96977
rradius 42.0545
rwrist -63.1256
rhand -25.3262 -14.2806
rfingers 7.12502
rthumb 1.19652 -44.257
lclavicle 5.725e-014 3.26007e-014
lhumerus 76.7493 -12.0285 51.9032
lradius 32.2612
lwrist 38.6435
lhand -29.896 3.57917
lfingers 7.12502
lthumb -3.21701 33.5346
rfemur -43.1985 6.04844 12.1483
rtibia 30.2034
rfoot 28.4103 -3.99024
rtoes 9.26665
lfemur -37.1762 -7.37294 -16.715
ltibia 38.5384
lfoot 12.5256 24.3175
ltoes 18.0414
889
root 1.59944 13.7056 11.1876 99.2197 -1.60542 -0.396279
lowerback -25.2712 -0.765388 -8.4305
upperback -9.06656 0.701602 7.27073
thorax 3.61467 0.654057 13.3769
lowerneck -22.297 -3.12173 -11.1327
upperneck 43.4556 1.22127 -1.66862
head 21.5486 -1.57413 1.43873
rclavicle -2.38542e-014 -5.04913e-014
rhumerus 78.9347 9.80553 -9.08818
rradius 40.9794
rwrist -62.1582
rhand -25.1263 -14.0468
rfingers 7.12502
rthumb 1.38956 -44.022
lclavicle -2.38542e-014 -5.04913e-014
lhumerus 77.2985 -12.0545 52.8574
lradius 30.5612
lwrist 36.773
lhand -29.8646 2.66262
lfingers 7.12502
lthumb -3.18674 32.6186
rfemur -43.5875 6.23545 12.5423
rtibia 30.4152
rfoot 28.2801 -3.60219
rtoes 9.00321
lfemur -37.6431 -7.4358 -16.9075
ltibia 38.7061
lfoot 12.7542 23.9357
ltoes 17.3123
890
root 1.58963 13.7005 11.175 99.1117 -1.58229 -0.471861
lowerback -25.2864 -0.74379 -8.44457
upperback -9.00252 0.734072 7.26672
thorax 3.68477 0.662828 13.3931
lowerneck -22.2719 -3.11766 -11.1122
upperneck 43.5541 1.20741 -1.64008
head 21.613 -1.57571 1.44685
rclavicle -3.65764e-014 -2.38542e-014
rhumerus 79.3704 9.80785 -9.25614
rradius 39.9079
rwrist -61.1253
rhand -25.0611 -13.7511
rfingers 7.12502
rthumb 1.45251 -43.7259
lclavicle -3.65764e-014 -2.38542e-014
lhumerus 77.8297 -12.0491 54.174
lradius 28.7521
lwrist 34.4828
lhand -29.8225 1.61625
lfingers 7.12502
lthumb -3.146 31.5728
rfemur -43.9896 6.44411 12.8989
rtibia 30.6266
rfoot 28.17 -3.12757
rtoes 8.74969
lfemur -38.1384 -7.51965 -17.0615
ltibia 38.8851
lfoot 12.9311 23.6276
ltoes 16.6741
891
root 1.58066 13.6949 11.161 99.0066 -1.55236 -0.554147
lowerback -25.3113 -0.717203 -8.4585
upperback -8.94036 0.773122 7.2798
thorax 3.75493 0.67541 13.4326
lowerneck -22.2356 -3.11121 -11.1001
upperneck 43.7 1.19677 -1.60056
head 21.7094 -1.57791 1.46301
rclavicle -1.74931e-014 6.75868e-015
rhumerus 79.8278 9.82341 -9.52104
rradius 38.8125
rwrist -59.9212
rhand -25.0977 -13.5146
rfingers 7.12502
rthumb 1.4172 -43.4897
lclavicle -1.74931e-014 6.75868e-015
lhumerus 78.344 -12.0098 55.858
lradius 26.8328
lwrist 31.7512
lhand -29.7685 0.514774
lfingers 7.12502
lthumb -3.09387 30.4721
rfemur -44.4032 6.65501 13.2275
rtibia 30.8349
rfoot 28.0643 -2.58615
rtoes 8.50921
lfemur -38.6649 -7.59848 -17.1909
ltibia 39.0763
lfoot 13.0581 23.3979
ltoes 16.1814
